<svg width="374" height="174" viewBox="0 0 374 174" fill="none" xmlns="http://www.w3.org/2000/svg">
<g clip-path="url(#clip0_419_1058)">
<path fill-rule="evenodd" clip-rule="evenodd" d="M37.4793 0H167.121V51.6108H106.52C103.403 36.6987 90.1817 25.4982 74.3441 25.4982H37.4793V0ZM37.4793 34.7144V51.6108H97.0195C94.1114 41.8396 85.0599 34.7144 74.3441 34.7144H37.4793ZM97.8729 60.827H0V82.0243H74.3441C86.5785 82.0243 96.6436 72.7364 97.8729 60.827ZM0 91.2405V112.438H97.8413C96.4705 100.506 86.3357 91.2405 74.0369 91.2405H0ZM97.1206 121.654H37.4793V139.165H74.0369C85.0357 139.165 94.3037 131.754 97.1206 121.654ZM37.4793 148.381H74.0369C90.1534 148.381 103.586 136.89 106.588 121.654H167.121V173.265H37.4793V148.381ZM107.102 112.438C106.198 101.487 99.9773 92.045 91.0268 86.6985C100.052 81.3724 106.31 71.8567 107.125 60.827H129.641V112.438H107.102Z" fill="#262626"/>
<path d="M140 112.393V62H153.658C157.323 62 159.985 62.8971 161.646 64.6914C163.326 66.4666 164.166 69.4062 164.166 73.5102V75.7148C164.166 78.0818 163.736 80.0001 162.877 81.4699C162.037 82.9397 160.749 83.9037 159.012 84.3618C161.283 84.9344 162.801 86.2801 163.564 88.3989C164.347 90.4986 164.738 93.066 164.738 96.101C164.738 99.3651 164.433 102.219 163.822 104.662C163.211 107.105 162.104 109.005 160.501 110.36C158.897 111.715 156.616 112.393 153.658 112.393H140ZM149.849 80.9832H151.911C152.846 80.9832 153.448 80.6205 153.715 79.8951C153.982 79.1698 154.116 78.3013 154.116 77.2896V72.2217C154.116 70.5992 153.4 69.788 151.968 69.788H149.849V80.9832ZM150.852 103.517C153.467 103.517 154.774 102.276 154.774 99.7946V93.4955C154.774 92.0638 154.555 90.9376 154.116 90.1169C153.696 89.277 152.894 88.857 151.711 88.857H149.849V103.459C150.269 103.498 150.603 103.517 150.852 103.517Z" fill="#262626"/>
<path d="M189.298 112.393V62H199.033V112.393H189.298Z" fill="#262626"/>
<path d="M224.738 112.393V62H234.816V103.803H245.181V112.393H224.738Z" fill="#262626"/>
<path d="M269.283 112.393V62H279.018V112.393H269.283Z" fill="#262626"/>
<path d="M309.046 112.393V71.6777H303.062V62H325.109V71.6777H319.124V112.393H309.046Z" fill="#262626"/>
<path d="M355.71 112.393V95.8147L347.664 62H357.657L360.462 79.0648L363.268 62H373.232L365.215 95.8147V112.393H355.71Z" fill="#262626"/>
</g>
<defs>
<clipPath id="clip0_419_1058">
<rect width="374" height="174" fill="#262626"/>
</clipPath>
</defs>
</svg>
